<svg width="248" height="58" viewBox="0 0 248 58" fill="none" xmlns="http://www.w3.org/2000/svg">
<g clip-path="url(#clip0_185_284)" filter="url(#filter0_d_185_284)">
<path d="M7.76551 14.2856H7.29482C5.47514 14.2856 4 15.778 4 17.619V32.3809C4 34.2218 5.47514 35.7142 7.29482 35.7142H7.76551C9.58519 35.7142 11.0603 34.2218 11.0603 32.3809V17.619C11.0603 15.778 9.58519 14.2856 7.76551 14.2856Z" fill="white"/>
<path d="M62.3654 14.2856H61.8947C60.0751 14.2856 58.5999 15.778 58.5999 17.619V32.3809C58.5999 34.2218 60.0751 35.7142 61.8947 35.7142H62.3654C64.1851 35.7142 65.6603 34.2218 65.6603 32.3809V17.619C65.6603 15.778 64.1851 14.2856 62.3654 14.2856Z" fill="white"/>
<path d="M52.0103 10.4811V39.5287C52.0103 40.4127 51.6632 41.2606 51.0453 41.8857C50.4274 42.5108 49.5893 42.862 48.7155 42.862H48.2448C47.371 42.862 46.5329 42.5108 45.915 41.8857C45.2971 41.2606 44.95 40.4127 44.95 39.5287V28.4573C44.9501 27.8457 44.784 27.2459 44.4698 26.7235C44.1556 26.2011 43.7054 25.7762 43.1684 25.4954L33.0815 20.2168C32.5446 19.9359 32.0944 19.511 31.7802 18.9886C31.4659 18.4662 31.2998 17.8664 31.3 17.2549V3.33822C31.3 2.45416 31.6471 1.60631 32.265 0.981191C32.8829 0.35607 33.721 0.00488281 34.5948 0.00488281H35.0655C35.9393 0.00488281 36.7774 0.35607 37.3953 0.981191C38.0132 1.60631 38.3603 2.45416 38.3603 3.33822V13.3382C38.3603 14.2223 38.7075 15.0701 39.3254 15.6952C39.9433 16.3204 40.7813 16.6715 41.6551 16.6715C42.529 16.6715 43.367 16.3204 43.9849 15.6952C44.6028 15.0701 44.95 14.2223 44.95 13.3382V10.4811C44.95 9.59702 45.2971 8.74917 45.915 8.12405C46.5329 7.49893 47.371 7.14774 48.2448 7.14774H48.7155C49.5893 7.14774 50.4274 7.49893 51.0453 8.12405C51.6632 8.74917 52.0103 9.59702 52.0103 10.4811Z" fill="white"/>
<path d="M38.3603 32.7429V46.6715C38.3603 47.5556 38.0131 48.4034 37.3952 49.0285C36.7773 49.6537 35.9393 50.0048 35.0655 50.0048H34.5948C33.7209 50.0048 32.8829 49.6537 32.265 49.0285C31.6471 48.4034 31.2999 47.5556 31.2999 46.6715V36.6715C31.2999 35.7875 30.9528 34.9396 30.3349 34.3145C29.717 33.6894 28.879 33.3382 28.0051 33.3382C27.1313 33.3382 26.2932 33.6894 25.6753 34.3145C25.0574 34.9396 24.7103 35.7875 24.7103 36.6715V39.5287C24.7103 40.4127 24.3632 41.2606 23.7453 41.8857C23.1274 42.5108 22.2893 42.862 21.4155 42.862H20.9448C20.0709 42.862 19.2329 42.5108 18.615 41.8857C17.9971 41.2606 17.65 40.4127 17.65 39.5287V10.481C17.65 9.59698 17.9971 8.74913 18.615 8.12401C19.2329 7.49889 20.0709 7.14771 20.9448 7.14771H21.4155C22.2893 7.14771 23.1274 7.49889 23.7453 8.12401C24.3632 8.74913 24.7103 9.59698 24.7103 10.481V21.5453C24.7101 22.1569 24.8762 22.7566 25.1905 23.2791C25.5047 23.8015 25.9549 24.2264 26.4919 24.5072L36.5787 29.7858C37.115 30.0663 37.5647 30.4904 37.8789 31.0119C38.1931 31.5334 38.3596 32.1322 38.3603 32.7429Z" fill="white"/>
<path d="M75.3094 37.6048C75.4835 36.931 75.6294 36.2025 75.7542 35.4191C75.8726 34.6846 75.9339 33.9419 75.9377 33.1977V17.5858C75.9339 16.8408 75.8725 16.0973 75.7542 15.362C75.6294 14.5786 75.4835 13.8453 75.3094 13.1596C75.1352 12.4739 75.0528 12.1191 75.0528 12.0953V11.9453H81.6966V12.0953C81.1067 14.635 80.8117 16.4652 80.8117 17.5858V24.4906H92.0188V17.5858C92.0188 16.4652 91.7239 14.635 91.1339 12.0953V11.9453H97.7848V12.0953C97.7848 12.1191 97.7 12.4739 97.5282 13.1596C97.3564 13.8453 97.2082 14.5882 97.0834 15.362C96.9651 16.0973 96.9037 16.8408 96.8999 17.5858V33.1977C96.9037 33.9419 96.965 34.6846 97.0834 35.4191C97.2082 36.2025 97.3541 36.9382 97.5282 37.6215C97.7024 38.3048 97.7848 38.662 97.7848 38.6882V38.8358H91.141V38.6882C91.7309 36.1485 92.0259 34.3183 92.0259 33.1977V26.1001H80.8047V33.1977C80.8047 34.3167 81.0996 36.1469 81.6895 38.6882V38.8358H75.0458V38.6882C75.0458 38.662 75.1305 38.3025 75.3094 37.6048Z" fill="white"/>
<path d="M100.887 13.7C100.883 13.3054 100.959 12.9143 101.112 12.5512C101.265 12.1882 101.49 11.861 101.774 11.5905C102.348 11.0285 103.116 10.7144 103.914 10.7144C104.713 10.7144 105.481 11.0285 106.055 11.5905C106.339 11.861 106.564 12.1882 106.717 12.5512C106.869 12.9143 106.946 13.3054 106.942 13.7C106.947 14.0996 106.871 14.4961 106.719 14.8647C106.566 15.2334 106.34 15.5663 106.055 15.8428C105.774 16.128 105.44 16.354 105.073 16.5077C104.705 16.6613 104.311 16.7397 103.913 16.7381C103.519 16.74 103.128 16.6617 102.764 16.5079C102.4 16.3541 102.071 16.128 101.795 15.8428C101.505 15.5692 101.274 15.2373 101.117 14.8684C100.961 14.4994 100.882 14.1014 100.887 13.7ZM100.924 20.2738V20.1238H106.387V33.1976C106.387 34.3166 106.682 36.1468 107.274 38.6881V38.8357H100.92V38.6881C100.92 38.6619 101.004 38.3071 101.178 37.6214C101.353 36.9357 101.496 36.1928 101.621 35.419C101.739 34.6845 101.801 33.9418 101.804 33.1976V25.7643C101.808 24.6436 101.514 22.8135 100.924 20.2738Z" fill="white"/>
<path d="M110.816 33.1977V25.7644C110.816 24.6437 110.521 22.8136 109.931 20.2739V20.1239H115.431V23.4858C116.193 22.0175 117.08 21.0215 118.09 20.4977C118.939 20.0193 119.887 19.7509 120.858 19.7144C121.587 19.7247 122.31 19.8509 123 20.0882L122.294 25.1667H122.143C121.603 24.631 120.98 24.1894 120.298 23.8596C119.685 23.5677 119.017 23.415 118.34 23.412C118.194 23.412 117.869 23.4358 117.344 23.4858C116.819 23.5358 116.186 23.8715 115.424 24.4953V33.1977C115.426 33.9484 115.488 34.6977 115.61 35.4382C115.732 36.2096 115.88 36.9453 116.052 37.6405L116.273 38.6882V38.8358H109.919V38.6882C110.519 36.1485 110.817 34.3183 110.816 33.1977Z" fill="white"/>
<path d="M126.582 22.5143C128.256 20.7683 130.422 19.8953 133.079 19.8953C135.737 19.8953 137.767 20.7611 139.17 22.4929C140.573 24.2215 141.274 26.3937 141.274 29.0095H129.09C129.238 31.1508 129.81 32.8627 130.808 34.1453C131.806 35.4278 133.228 36.0683 135.073 36.0667C137.04 36.0667 139.009 35.2453 140.978 33.6024L141.126 33.7143C140.486 35.2648 139.431 36.6039 138.08 37.581C136.618 38.6533 134.848 39.2104 133.042 39.1667C131.867 39.1856 130.699 38.9675 129.608 38.5252C128.517 38.0829 127.524 37.4252 126.687 36.5905C124.913 34.8778 124.026 32.5143 124.026 29.5C124.026 26.5857 124.878 24.2572 126.582 22.5143ZM129.055 28.0048V28.081L136.621 27.1834C136.571 25.4675 136.257 24.0548 135.68 22.9453C135.103 21.8357 134.211 21.2802 133.004 21.2786C131.652 21.2786 130.655 21.9135 130.015 23.1834C129.375 24.4532 129.055 25.9968 129.055 27.8143V28.0048Z" fill="white"/>
<path d="M144.004 19.2668C144.004 17.1509 144.867 15.339 146.593 13.8311C148.319 12.3231 150.657 11.5699 153.609 11.5715C156.387 11.5715 159.389 12.3184 162.615 13.812V19.3025H162.432C161.398 18.1834 160.463 17.2374 159.626 16.4644C158.66 15.6003 157.6 14.8488 156.468 14.2239C155.202 13.5017 154.025 13.1406 152.938 13.1406C151.585 13.1406 150.487 13.5144 149.643 14.262C149.242 14.5906 148.919 15.0062 148.698 15.4781C148.477 15.95 148.364 16.4661 148.367 16.9882C148.367 18.2342 149.001 19.2795 150.269 20.1239C151.537 20.9684 153.45 21.8652 156.009 22.8144C161.082 24.8303 163.617 27.6811 163.615 31.3668C163.615 33.9065 162.686 35.8612 160.827 37.2311C158.967 38.6009 156.683 39.2874 153.973 39.2906C151.192 39.2906 147.967 38.4438 144.301 36.7501V31.0692H144.522C145.433 32.0644 146.154 32.8295 146.682 33.3644C147.211 33.8993 147.943 34.5596 148.878 35.3453C149.704 36.0604 150.631 36.6455 151.629 37.0811C152.5 37.4491 153.434 37.6393 154.378 37.6406C155.757 37.6406 156.902 37.2549 157.812 36.4834C158.722 35.712 159.177 34.666 159.177 33.3453C159.191 32.6506 159.036 31.963 158.723 31.344C158.411 30.725 157.953 30.1938 157.388 29.7977C156.193 28.9025 154.402 28.0295 152.015 27.1787C146.676 25.366 144.006 22.7287 144.004 19.2668Z" fill="white"/>
<path d="M172.172 14.2239H172.467V20.1239H177.524V21.6572H172.467V33.0858C172.467 35.0524 173.33 36.0358 175.055 36.0358C176.141 36.0187 177.201 35.6954 178.115 35.1024C177.66 36.2474 176.923 37.2561 175.976 38.0334C175.009 38.8031 173.807 39.2058 172.577 39.1715C171.102 39.1715 169.946 38.6739 169.108 37.6786C168.271 36.6834 167.852 35.3159 167.854 33.5763V21.6715H165.159V20.3644C168.06 19.2342 170.398 17.1874 172.172 14.2239Z" fill="white"/>
<path d="M180.664 33.1977V25.7644C180.664 24.6437 180.368 22.8136 179.777 20.2739V20.1239H185.279V23.4858C186.041 22.0175 186.927 21.0215 187.936 20.4977C188.785 20.0196 189.734 19.7512 190.706 19.7144C191.434 19.7249 192.156 19.8511 192.845 20.0882L192.139 25.1667H191.993C191.453 24.631 190.829 24.1893 190.146 23.8596C189.534 23.568 188.866 23.4152 188.19 23.412C188.042 23.412 187.719 23.4358 187.192 23.4858C186.665 23.5358 186.037 23.8715 185.274 24.4953V33.1977C185.276 33.9483 185.338 34.6975 185.458 35.4382C185.58 36.2096 185.728 36.9453 185.9 37.6405L186.121 38.6882V38.8358H179.767V38.6882C180.365 36.1485 180.664 34.3183 180.664 33.1977Z" fill="white"/>
<path d="M196.575 22.4023C198.348 20.7356 200.575 19.9015 203.257 19.8999C205.938 19.8983 208.172 20.7388 209.957 22.4213C211.766 24.1023 212.671 26.4364 212.671 29.4237C212.671 32.4618 211.772 34.8428 209.976 36.5666C208.154 38.3126 205.915 39.1856 203.257 39.1856C200.599 39.1856 198.372 38.3205 196.575 36.5904C194.78 34.8618 193.882 32.4809 193.881 29.4475C193.881 26.4444 194.779 24.0959 196.575 22.4023ZM199.011 29.4237C199.011 31.7412 199.374 33.7086 200.101 35.3261C200.827 36.9436 201.879 37.7523 203.257 37.7523C204.611 37.7523 205.663 36.9372 206.413 35.307C207.163 33.6769 207.539 31.7158 207.54 29.4237C207.54 27.1602 207.164 25.2372 206.413 23.6547C205.661 22.0721 204.609 21.2785 203.257 21.2737C201.878 21.2737 200.826 22.0674 200.101 23.6547C199.376 25.242 199.013 27.165 199.011 29.4237Z" fill="white"/>
<path d="M215.514 33.1977V25.7644C215.514 24.6438 215.218 22.8136 214.626 20.2739V20.1239H220.091V23.0763C221.616 20.9604 223.486 19.9017 225.702 19.9001C226.838 19.8805 227.955 20.1993 228.914 20.8168C229.875 21.4602 230.591 22.4147 230.945 23.5239C232.593 21.1096 234.562 19.9017 236.852 19.9001C237.599 19.8782 238.343 20.0073 239.04 20.28C239.737 20.5527 240.374 20.9635 240.912 21.4882C241.995 22.5469 242.536 24.1215 242.536 26.212V33.1977C242.536 34.3168 242.832 36.1469 243.423 38.6882V38.8358H237.069V38.6882C237.659 36.1485 237.954 34.3184 237.954 33.1977V26.8096C237.954 25.5398 237.609 24.5811 236.92 23.9334C236.24 23.2916 235.339 22.9439 234.409 22.9644C233.377 22.9644 232.294 23.4247 231.162 24.3453C231.283 24.96 231.345 25.5852 231.345 26.212V33.1977C231.345 34.3168 231.641 36.1469 232.232 38.6882V38.8358H225.93V38.6882C226.518 36.1485 226.813 34.3184 226.815 33.1977V26.8096C226.815 25.5398 226.464 24.5811 225.763 23.9334C225.063 23.2885 224.144 22.9414 223.198 22.9644C222.189 22.9644 221.155 23.3874 220.096 24.2334V33.1977C220.098 33.9484 220.16 34.6977 220.282 35.4382C220.404 36.2096 220.538 36.9453 220.686 37.6406L220.945 38.6882V38.8358H214.633V38.6882C215.222 36.1485 215.515 34.3184 215.514 33.1977Z" fill="white"/>
</g>
<defs>
<filter id="filter0_d_185_284" x="0" y="0" width="247.423" height="58" filterUnits="userSpaceOnUse" color-interpolation-filters="sRGB">
<feFlood flood-opacity="0" result="BackgroundImageFix"/>
<feColorMatrix in="SourceAlpha" type="matrix" values="0 0 0 0 0 0 0 0 0 0 0 0 0 0 0 0 0 0 127 0" result="hardAlpha"/>
<feOffset dy="4"/>
<feGaussianBlur stdDeviation="2"/>
<feComposite in2="hardAlpha" operator="out"/>
<feColorMatrix type="matrix" values="0 0 0 0 0 0 0 0 0 0 0 0 0 0 0 0 0 0 0.25 0"/>
<feBlend mode="normal" in2="BackgroundImageFix" result="effect1_dropShadow_185_284"/>
<feBlend mode="normal" in="SourceGraphic" in2="effect1_dropShadow_185_284" result="shape"/>
</filter>
<clipPath id="clip0_185_284">
<rect width="239.423" height="50" fill="white" transform="translate(4)"/>
</clipPath>
</defs>
</svg>
