<svg width="12" height="17" viewBox="0 0 12 17" fill="none" xmlns="http://www.w3.org/2000/svg">
<path d="M10 0H2C0.875 0 0 0.90625 0 2V15.5C0 15.6875 0.09375 15.875 0.25 15.9688C0.40625 16.0312 0.59375 16.0312 0.75 15.9375L6 12.5938L11.2188 15.9375C11.3125 16 11.4062 16 11.5 16C11.5625 16 11.6562 16 11.7188 15.9688C11.875 15.875 12 15.6875 12 15.5V2C12 0.90625 11.0938 0 10 0ZM11 14.5938L6.25 11.5938C6.15625 11.5312 6.09375 11.5 6 11.5C5.90625 11.5 5.8125 11.5312 5.71875 11.5938L1 14.5938V2C1 1.46875 1.4375 1 2 1H10C10.5312 1 11 1.46875 11 2V14.5938Z" fill="#004A64"/>
</svg>
